<svg xmlns="http://www.w3.org/2000/svg" version="1.1" xmlns:xlink="http://www.w3.org/1999/xlink" xmlns:svgjs="http://svgjs.com/svgjs" width="512" height="512" x="0" y="0" viewBox="0 0 511.9996 511" style="enable-background:new 0 0 512 512" xml:space="preserve" class=""><g><path d="m256 250.605469c68.953125 0 125.054688-56.097657 125.054688-125.050781 0-55.722657-37.414063-105.214844-90.980469-120.355469-3.984375-1.125-8.128907 1.195312-9.257813 5.179687-1.125 3.984375 1.191406 8.132813 5.179688 9.257813 7.519531 2.125 14.671875 5.027343 21.394531 8.589843-6.542969 3.785157-17.101563 8.1875-32.015625 9.371094-8.085938.644532-15.496094 4.761719-20.335938 11.296875-4.78125 6.460938-6.539062 14.636719-4.820312 22.433594 1.871094 8.476563 5.632812 16.476563 11.183594 23.785156 2.457031 3.234375 3.828125 7.148438 3.972656 11.320313.132812 3.957031-2.558594 22.675781 9.175781 28.050781 9.960938 4.5625 26.355469-3.355469 26.355469-3.355469 7.886719-3.722656 14.070312-10.6875 16.957031-19.109375 6.34375-18.5 26.671875-19.136719 44.167969-15.746093 2.613281 9.390624 4.019531 19.214843 4.019531 29.28125 0 11.519531-1.78125 22.628906-5.078125 33.070312-13.171875-29.957031-38.988281-32.03125-58.839844-23.425781-11.710937 5.074219-24.351562 7.40625-37.570312 6.96875-9.992188-.367188-18.933594 4.582031-23.96875 13.179687-5.039062 8.59375-4.957031 18.820313.21875 27.355469 4.660156 7.683594 11.140625 14.730469 19.261719 20.953125 9.183593 7.03125 16.070312 16.832031 20.5625 29.167969-7.921875 1.820312-16.171875 2.78125-24.636719 2.78125-9.902344 0-19.5-1.320313-28.636719-3.785157-.5-11.210937-2.289062-24.894531-7.425781-35.171874-3.15625-6.308594-5.371094-14.367188-6.410156-23.308594-.757813-6.511719-4.015625-12.324219-9.175782-16.367188-5.183593-4.058594-11.640624-5.835937-18.183593-5.011718-13.191407 1.671874-24.238281 7.617187-32.585938 13.886718-.332031-.84375-.65625-1.691406-.964843-2.542968 16.746093-21.785157 34.183593-26.625 46.089843-26.742188 6.136719-.0625 11.886719-2.800781 15.785157-7.511719 3.871093-4.683593 5.46875-10.796875 4.386718-16.773437-.566406-3.125-1.109375-6.148438-1.539062-8.582032-.15625-.898437.0625-1.789062.589844-2.390624 6.324218-7.234376 9.683593-16.410157 9.714843-26.53125.035157-10.519532-7.125-19.566407-17.414062-22.003907-11.785157-2.792969-21.070313-5.910156-28.097657-8.730469 19.542969-17.722656 45.464844-28.539062 73.863282-28.539062 4.144531 0 7.5-3.355469 7.5-7.5s-3.355469-7.5-7.5-7.5c-68.953125 0-125.050782 56.097656-125.050782 125.050781 0 68.957031 56.097657 125.054688 125.054688 125.054688zm66.242188-165.464844c-8.808594 4.667969-15.226563 12.277344-18.566407 22.011719-1.601562 4.683594-4.859375 8.378906-9.167969 10.410156l-9.078124 4.28125c-1.375.648438-2.511719.175781-3.066407-.164062-.558593-.339844-1.496093-1.132813-1.546875-2.648438-.15625-4.460938-.316406-9.148438-.449218-13.105469-.246094-7.289062-2.671876-14.164062-7.019532-19.882812-4.226562-5.570313-7.078125-11.605469-8.476562-17.949219-.796875-3.609375-.007813-7.257812 2.226562-10.273438 2.253906-3.050781 5.707032-4.96875 9.464844-5.265624 22.808594-1.8125 37.574219-10.28125 44.722656-15.554688 15.113282 11.203125 27.140625 26.132812 34.90625 43.214844-13.546875-1.492188-24.929687.144531-33.949218 4.925781zm-53.046876 106.605469c-6.632812-5.082032-11.867187-10.742188-15.554687-16.820313-2.269531-3.746093-2.308594-8.230469-.105469-11.996093 2.207032-3.765626 6.140625-5.921876 10.515625-5.773438 15.460938.539062 30.28125-2.226562 44.046875-8.195312 13.152344-5.703126 28.898438-.832032 36.632813 11.332031 3.582031 5.640625 6.066406 11.941406 7.414062 18.757812-12.566406 22.496094-32.796875 40.148438-57.132812 49.40625-5.457031-15.414062-14.113281-27.746093-25.816407-36.710937zm-81.140624-24.902344c2.539062-.324219 5.042968.363281 7.046874 1.9375 1.984376 1.554688 3.234376 3.785156 3.527344 6.289062 1.253906 10.808594 3.910156 20.324219 7.890625 28.289063 2.71875 5.433594 4.585938 13.414063 5.453125 23.046875-21.871094-9.585938-40.050781-26.078125-51.757812-46.707031 6.917968-5.664063 16.476562-11.417969 27.839844-12.855469zm-16.992188-111.195312c10.265625 4.589843 22.242188 8.527343 35.714844 11.71875 3.414062.808593 5.878906 3.902343 5.871094 7.355468-.023438 6.550782-2.046876 12.171875-6.011719 16.710938-3.535157 4.042968-5.019531 9.460937-4.066407 14.859375.429688 2.453125.980469 5.503906 1.550782 8.65625.402344 2.21875-.570313 3.796875-1.1875 4.542969-.628906.761718-2.039063 2.046874-4.371094 2.066406-13.523438.136718-32.4375 4.769531-50.742188 24.230468-1.226562-6.5625-1.875-13.324218-1.875-20.238281 0-26.519531 9.433594-50.878906 25.117188-69.902343zm0 0" fill="#22c55e" data-original="#000000" class=""></path><path d="m177.113281 318.027344c-10.59375-3.816406-20.808593-8.726563-30.4375-14.585938 7.726563-6.464844 13.253907-16.851562 14.859375-28.964844 1.355469-10.234374.109375-20.59375-4.75-28.449218-6.003906-9.699219-18.339844-19.941406-36.421875-12.941406.683594-1.117188 19.871094-39.683594-7.382812-53.636719-4.378907-2.242188-9.105469-3.164063-13.890625-2.855469 12.34375-7.824219 18.640625-18.925781 20.890625-27.882812 2.429687-9.667969.625-19.058594-4.949219-25.757813-5.789062-6.960937-14.53125-10.148437-24.015625-9.648437 6.5625-2.253907 28.824219-22.738282 23.988281-50.230469-1.726562-9.816407-7.523437-17.515625-15.414062-21.21875-7.890625-3.699219-17.429688-3.074219-26.171875 1.71875-8.097657 4.441406-15.289063 11.894531-19.355469 21.382812-11.398438 26.605469.230469 40.867188 4.480469 45-.992188 3.398438-1.878907 6.8125-2.667969 10.242188-5.976562-5.851563-13.101562-10.003907-20.496094-11.863281-9.667968-2.425782-19.054687-.625-25.753906 4.949218-6.699219 5.574219-10.183594 14.476563-9.5507812 24.425782.5820312 9.21875 4.5390622 18.664062 11.1445312 26.605468 6.601562 7.933594 21.691406 19.582032 41.128906 15.546875.699219 6.449219 1.75 12.882813 3.152344 19.289063-7.203125-2.527344-14.675781-3.339844-21.605469-2.28125-9.851562 1.515625-17.804687 6.816406-21.820312 14.554687-4.011719 7.734375-3.769531 17.292969.671875 26.21875 4.113281 8.269531 11.425781 15.441407 20.589844 20.195313 7.164062 3.71875 29.554687 12.511718 44.6875-2.261719 2.707031 4.441406 5.605468 8.765625 8.699218 12.964844-18.378906.683593-33.074218 11.203125-35.070312 26.28125-1.628906 12.304687 5.789062 24.21875 19.253906 31.300781 4.804688 2.527344 8.777344-.632812 10.109375-3.207031 1.910156-3.675781.472656-8.203125-3.203125-10.109375-7.625-3.953125-12.054688-10.238282-11.292969-16.011719 1.171875-8.820313 11.949219-17.171875 34.421875-11.230469.65625.691406 10.789063 10.625 15.519532 14.539063.210937 1.113281.21875 11.757812-13.109376 15.378906-4 1.082031-6.292968 5.285156-5.15625 9.269531.941407 3.292969 4.175782 6.511719 9.269532 5.15625 11.316406-3.015625 19.558594-10.457031 22.746094-19.484375 13.003906 8.832031 27.136718 16.078125 41.820312 21.71875 5.15625 1.976563 8.496094-1.460937 9.597656-4.519531 1.40625-3.898438-.617187-8.195312-4.515625-9.597656zm-43.402343-72.703125c5.257812.695312 15.042968 7.277343 12.953124 27.179687-1.074218 10.214844-6.800781 18.847656-13.417968 21.84375-6.792969-5.085937-13.199219-10.667968-19.125-16.707031 0 0 0-.003906 0-.007813-.40625-3.058593-.417969-6.222656.007812-9.4375 1.796875-13.566406 10.773438-24.035156 19.582032-22.871093zm-33.589844 16.097656c-2.054688-2.714844-4.015625-5.488281-5.894532-8.316406 3.582032-.777344 7.136719-2.1875 10.527344-4.214844-2.027344 3.761719-3.605468 7.976563-4.632812 12.53125zm5.953125-68.65625c7.894531 4.097656 9.242187 17.820313 2.941406 29.964844-5.597656 10.792969-15.6875 17.355469-23.40625 15.816406-3.519531-6.710937-6.582031-13.695313-9.191406-20.929687.621093-3.398438 1.785156-6.761719 3.464843-10 6.300782-12.148438 18.292969-18.949219 26.191407-14.851563zm-36.117188 2.289063c-.828125-3.902344-1.515625-7.816407-2.0625-11.734376 2.363281.542969 6.898438 1.539063 12.859375.410157-3.992187 2.960937-7.671875 6.769531-10.796875 11.324219zm33.542969-62.507813c3.390625 4.074219 4.78125 16.144531-8.910156 28.761719-9.167969 8.445312-21.78125 10-28.179688 5.132812-.285156-7.847656-.007812-15.695312.832032-23.5 15.261718-18.511718 30.570312-17.234375 36.257812-10.394531zm-35.855469-61.222656c8.503907-20.308594 24.054688-16.601563 25.574219-15.886719 4.800781 2.25 10.707031 11.660156 4.140625 29.820312-7.15625 17.839844-20.773437 18.140626-25.574219 15.890626-4.800781-2.25-11.617187-11.972657-4.140625-29.824219zm-44.898437 83.394531c-10.5-13.9375-7.605469-26.511719-3.527344-29.902344 4.074219-3.390625 16.144531-5.144531 28.761719 8.914063 1.832031 2.039062 3.242187 4.347656 4.4375 6.6875-.871094 7.757812-1.234375 15.550781-1.089844 23.347656-12.472656 4.964844-24.328125-3.40625-28.582031-9.046875zm47.460937 86.863281c-7.316406 10.6875-23.695312 6.191407-29.964843 2.941407-6.269532-3.253907-11.398438-8.195313-14.066407-13.5625-1.34375-2.695313-3.230469-7.925782-.785156-12.632813 2.4375-4.703125 7.789063-6.257813 10.777344-6.628906 13.136719-1.632813 23.101562 5.976562 24.84375 7.332031 2.636719 7.8125 5.761719 15.359375 9.355469 22.632812zm0 0" fill="#22c55e" data-original="#000000" class=""></path><path d="m289.484375 358.617188h-5.136719v-74.289063c0-8.535156-4.730468-16.226563-12.347656-20.078125-7.613281-3.851562-16.613281-3.101562-23.488281 1.957031l-37.195313 27.378907c-13.859375 10.363281-8.308594 26.589843-4.785156 31.457031 13.234375 18.273437 32.816406 3.785156 32.816406 3.785156v29.789063h-5.136718c-12.40625 0-22.5 10.097656-22.5 22.5 0 12.40625 10.09375 22.503906 22.5 22.503906h55.273437c12.40625 0 22.5-10.097656 22.5-22.503906 0-12.402344-10.09375-22.5-22.5-22.5zm0 30h-55.273437c-4.136719 0-7.5-3.363282-7.5-7.5 0-4.132813 3.363281-7.5 7.5-7.5h12.636718c4.144532 0 7.5-3.355469 7.5-7.5v-52.121094c0-2.832032-1.589844-5.417969-4.117187-6.695313-2.523438-1.273437-5.550781-1.023437-7.828125.652344l-13.304688 9.792969c-1.613281 1.1875-6.949218 3.296875-10.484375-1.59375-3.535156-4.890625-.019531-9.300782 1.59375-10.488282l37.191407-27.375c2.292968-1.6875 5.296874-1.9375 7.832031-.652343 2.539062 1.28125 4.117187 3.847656 4.117187 6.691406v81.789063c0 4.144531 3.359375 7.5 7.5 7.5h12.636719c4.136719 0 7.5 3.367187 7.5 7.5 0 4.136718-3.363281 7.5-7.5 7.5zm0 0" fill="#22c55e" data-original="#000000" class=""></path><path d="m500.78125 164.3125c6.605469-7.9375 10.5625-17.386719 11.144531-26.601562.632813-9.949219-2.851562-18.851563-9.550781-24.425782-6.699219-5.574218-16.085938-7.378906-25.753906-4.949218-7.394532 1.859374-14.519532 6.007812-20.496094 11.863281-.789062-3.429688-1.675781-6.847657-2.667969-10.246094 4.25-4.128906 15.878907-18.390625 4.480469-44.996094-4.066406-9.492187-11.257812-16.941406-19.355469-21.382812-8.742187-4.796875-18.28125-5.421875-26.171875-1.71875-7.890625 3.699219-13.6875 11.402343-15.414062 21.21875-4.835938 27.492187 17.425781 47.976562 23.988281 50.226562-9.484375-.496093-18.226563 2.691407-24.015625 9.652344-5.574219 6.699219-7.378906 16.085937-4.949219 25.753906 2.25 8.957031 8.546875 20.058594 20.890625 27.886719-4.789062-.3125-9.511718.613281-13.890625 2.855469-27.253906 13.953125-8.066406 52.519531-7.382812 53.632812-18.085938-7-30.417969 3.242188-36.421875 12.945313-4.859375 7.855468-6.105469 18.210937-4.75 28.445312 1.605468 12.117188 7.132812 22.503906 14.855468 28.96875-9.628906 5.859375-19.839843 10.769532-30.4375 14.582032-3.894531 1.402343-5.917968 5.703124-4.515624 9.597656 1.101562 3.058594 4.445312 6.496094 9.597656 4.515625 14.683594-5.636719 28.8125-12.878907 41.8125-21.710938 2.316406 6.554688 10.207031 23.589844 42.800781 20.816407 10.285156-.871094 19.550781-5.613282 26.226563-11.992188 7.210937-6.886719 10.6875-15.789062 9.542968-24.429688-1.996094-15.078124-16.6875-25.59375-35.070312-26.277343v-.003907c3.09375-4.199218 5.992187-8.523437 8.699218-12.964843 15.132813 14.773437 37.523438 5.976562 44.6875 2.261719 9.164063-4.753907 16.480469-11.925782 20.589844-20.195313 4.441406-8.925781 4.6875-18.484375.671875-26.21875-4.015625-7.738281-11.96875-13.042969-21.820312-14.554687-6.929688-1.058594-14.398438-.25-21.605469 2.28125 1.402344-6.40625 2.453125-12.839844 3.152344-19.292969 19.4375 4.039062 34.527344-7.605469 41.128906-15.542969zm-86.140625-79.050781v-.003907c-6.566406-18.160156-.664063-27.570312 4.136719-29.820312 1.523437-.714844 17.074218-4.421875 25.578125 15.890625 7.476562 17.847656.660156 27.570313-4.140625 29.820313-4.800782 2.25-18.417969 1.949218-25.574219-15.886719zm-6.140625 47.285156c5.6875-6.839844 21-8.117187 36.257812 10.394531.835938 7.804688 1.117188 15.652344.832032 23.5-6.398438 4.867188-19.011719 3.3125-28.179688-5.132812-13.691406-12.617188-12.304687-24.6875-8.910156-28.761719zm-43.164062 139.957031c-2.09375-19.902344 7.695312-26.484375 12.949218-27.179687 8.8125-1.164063 17.789063 9.304687 19.585938 22.871093.425781 3.214844.414062 6.378907.007812 9.4375v.007813c-5.925781 6.039063-12.332031 11.621094-19.125 16.707031-6.617187-2.996094-12.347656-11.628906-13.417968-21.84375zm80.140624 24.289063c.699219 5.253906-4.761718 17.757812-22.871093 19.582031-24.976563 2.519531-27.28125-15.160156-27.070313-16.273438 4.734375-3.914062 14.867188-13.84375 15.519532-14.539062 20.042968-7.191406 33.253906 2.410156 34.421874 11.230469zm-33.597656-35.371094c-1.027344-4.554687-2.609375-8.769531-4.632812-12.53125 3.390625 2.027344 6.945312 3.4375 10.527344 4.214844-1.878907 2.828125-3.839844 5.601562-5.894532 8.316406zm14.511719-22.875c-7.71875 1.539063-17.808594-5.023437-23.40625-15.816406-6.300781-12.144531-4.953125-25.871094 2.941406-29.964844 7.898438-4.097656 19.890625 2.703125 26.191407 14.851563 1.679687 3.238281 2.84375 6.601562 3.464843 10-2.609375 7.234374-5.671875 14.21875-9.191406 20.929687zm4.855469-54.816406c5.960937 1.128906 10.496094.132812 12.855468-.410157-.546874 3.917969-1.230468 7.832032-2.058593 11.734376-3.125-4.554688-6.804688-8.363282-10.796875-11.324219zm44.585937 27.96875c2.988281.371093 8.335938 1.925781 10.777344 6.628906 2.441406 4.707031.554687 9.9375-.785156 12.632813-2.667969 5.367187-7.796875 10.308593-14.066407 13.5625-6.269531 3.25-22.648437 7.746093-29.964843-2.941407l-.164063.082031c3.59375-7.273437 6.71875-14.820312 9.355469-22.632812 1.742187-1.355469 11.710937-8.964844 24.847656-7.332031zm-11.8125-77.96875c12.617188-14.058594 24.6875-12.304688 28.761719-8.914063 4.078125 3.390625 6.972656 15.964844-3.53125 29.902344-4.25 5.640625-16.105469 14.011719-28.578125 9.046875.144531-7.796875-.21875-15.589844-1.089844-23.347656 1.195313-2.339844 2.605469-4.648438 4.4375-6.6875zm0 0" fill="#22c55e" data-original="#000000" class=""></path></g></svg>